<svg xmlns="http://www.w3.org/2000/svg" viewBox="0 0 64 64" width="64" height="64">
  <defs>
    <linearGradient id="favGrad" x1="0%" y1="0%" x2="100%" y2="100%">
      <stop offset="0%" stop-color="#0284C7" />
      <stop offset="100%" stop-color="#0F2C59" />
    </linearGradient>
    <linearGradient id="dropGrad" x1="0%" y1="0%" x2="100%" y2="100%">
      <stop offset="0%" stop-color="#38BDF8" />
      <stop offset="100%" stop-color="#0284C7" />
    </linearGradient>
  </defs>
  <rect width="64" height="64" rx="14" fill="url(#favGrad)"/>
  <!-- Water Drop -->
  <path d="M32 14 C32 14, 19 31, 19 39 C19 46.2, 24.8 52, 32 52 C39.2 52, 45 46.2, 45 39 C45 31, 32 14, 32 14 Z" fill="#FFFFFF"/>
  <path d="M28 40 C28 35.5, 30.5 31, 32 27 C34.5 31, 36 35.5, 36 40 C36 42.8, 33.8 45, 32 45 C30.2 45, 28 42.8, 28 40 Z" fill="url(#dropGrad)"/>
  <!-- Emergency Wrench/Gear Dot -->
  <circle cx="46" cy="18" r="7" fill="#EA580C" stroke="#FFFFFF" stroke-width="2"/>
  <path d="M46 14 L46 22 M42 18 L50 18" stroke="#FFFFFF" stroke-width="2" stroke-linecap="round"/>
</svg>
